<svg width="30" height="30" viewBox="0 0 30 30" fill="none" xmlns="http://www.w3.org/2000/svg">
<g clip-path="url(#clip0_38_42)">
<path d="M3.27378 24.8297L14.5238 29.9399C14.5472 29.9399 14.5707 29.9699 14.5941 29.9699C14.641 30 14.7113 30 14.7582 30C14.805 30 14.8285 30 14.8753 30C14.8753 30 14.8753 30 14.8988 30C14.9222 30 14.9691 29.9699 14.9925 29.9699L26.2425 24.8597C26.5238 24.7395 26.7113 24.3788 26.7113 24.018V13.8878L29.055 12.8357C29.2425 12.7455 29.4066 12.5351 29.4769 12.2946C29.5472 12.0541 29.5238 11.7535 29.4066 11.513L26.5941 5.501L26.5707 5.47094C26.5707 5.44088 26.5472 5.44088 26.5472 5.41082C26.5472 5.38076 26.5238 5.38076 26.5238 5.3507C26.5238 5.3507 26.5238 5.3507 26.5238 5.32064C26.5003 5.29058 26.5003 5.29058 26.4769 5.26052L26.4535 5.23046L26.43 5.2004H26.4066L26.3832 5.17034C26.3597 5.14028 26.3363 5.14028 26.3128 5.14028C26.2894 5.14028 26.2894 5.11022 26.266 5.11022L15.016 0C15.016 0 15.016 0 14.9925 0H14.9691H14.9457C14.9222 0 14.9222 0 14.8988 0C14.8753 0 14.8753 0 14.8519 0C14.8285 0 14.8285 0 14.805 0C14.7816 0 14.7582 0 14.7113 0C14.6878 0 14.6878 0 14.6644 0C14.6175 0 14.5707 0.0300597 14.5472 0.0300597L3.29721 5.14028C3.25034 5.17034 3.2269 5.17034 3.18003 5.2004L3.15659 5.23046C3.13315 5.26052 3.10971 5.26052 3.08628 5.29058L3.06284 5.32064C3.0394 5.3507 3.01596 5.3507 3.01596 5.38076L2.99253 5.41082C2.96909 5.44088 2.96909 5.47094 2.94565 5.47094C2.94565 5.47094 2.94565 5.501 2.92221 5.501L0.109714 11.513C-0.0543486 11.8437 -0.0309111 12.2645 0.156589 12.5351C0.297214 12.7455 0.484714 12.8657 0.695651 12.8657C0.765964 12.8657 0.859714 12.8357 0.930026 12.8056L2.80503 11.9639V23.988C2.80503 24.3788 2.99253 24.7094 3.27378 24.8297ZM27.766 11.483L17.8753 15.992L15.7894 11.5431L25.68 7.03407L27.766 11.483ZM15.4613 2.10421L23.8988 5.9519L15.4613 9.7996V2.10421ZM15.4613 14.3086L16.9613 17.525C17.1019 17.8256 17.3363 17.976 17.5707 17.976C17.641 17.976 17.7347 17.9459 17.805 17.9158L25.305 14.519V23.3567L15.4613 27.8357V14.3086ZM4.21128 7.21443L14.055 11.6934V27.8056L4.21128 23.3267V7.21443Z" fill="white"/>
</g>
<defs>
<clipPath id="clip0_38_42">
<rect width="30" height="30" fill="white"/>
</clipPath>
</defs>
</svg>
