<svg width="30" height="30" viewBox="0 0 30 30" fill="none" xmlns="http://www.w3.org/2000/svg">
<path d="M24.0068 29.9957C23.62 29.9944 23.2373 29.9015 22.8807 29.7224C22.5242 29.5433 22.2009 29.2814 21.9295 28.9521L15.5 21.3107L9.07052 28.9571C8.6576 29.4579 8.12805 29.7984 7.55089 29.9342C6.97373 30.0699 6.37574 29.9947 5.83488 29.7182C5.28865 29.4555 4.82137 29.0021 4.49406 28.417C4.16674 27.832 3.99461 27.1425 4.00013 26.4387V6.24909C4.00013 4.59173 4.55085 3.00225 5.53114 1.83032C6.51144 0.658385 7.841 0 9.22734 0L21.7726 0C22.4591 0 23.1388 0.161638 23.773 0.475684C24.4072 0.78973 24.9835 1.25004 25.4688 1.83032C25.9542 2.4106 26.3393 3.09949 26.602 3.85767C26.8647 4.61584 26.9999 5.42845 26.9999 6.24909V26.4387C27.0057 27.1419 26.8342 27.831 26.5077 28.416C26.1811 29.0009 25.7147 29.4547 25.1693 29.7182C24.8011 29.9023 24.4059 29.9966 24.0068 29.9957ZM9.22734 2.49964C8.39553 2.49964 7.5978 2.89467 7.00962 3.59783C6.42145 4.30099 6.09101 5.25468 6.09101 6.24909V26.4387C6.09064 26.6469 6.14189 26.8507 6.23832 27.0241C6.33474 27.1976 6.472 27.333 6.63275 27.4132C6.79351 27.4934 6.97055 27.5149 7.14152 27.475C7.31248 27.435 7.4697 27.3353 7.59331 27.1886L14.7682 18.6635C14.9641 18.4308 15.229 18.3001 15.5052 18.3001C15.7814 18.3001 16.0464 18.4308 16.2423 18.6635L23.4088 27.1861C23.5324 27.3328 23.6896 27.4325 23.8606 27.4725C24.0315 27.5124 24.2086 27.4909 24.3693 27.4107C24.5301 27.3305 24.6673 27.1951 24.7638 27.0216C24.8602 26.8482 24.9114 26.6444 24.9111 26.4362V6.24909C24.9111 5.25468 24.5806 4.30099 23.9925 3.59783C23.4043 2.89467 22.6065 2.49964 21.7747 2.49964H9.22734Z" fill="white"/>
</svg>
