<svg width="18" height="18" viewBox="0 0 18 18" fill="none" xmlns="http://www.w3.org/2000/svg">
<g clip-path="url(#clip0_38_27)">
<path d="M17.7802 16.7198L13.3035 12.243C14.5234 10.751 15.1232 8.84707 14.9788 6.92518C14.8344 5.00328 13.9569 3.2104 12.5276 1.91739C11.0984 0.624387 9.2269 -0.0698265 7.30019 -0.0216526C5.37348 0.0265212 3.53899 0.813397 2.17617 2.17621C0.813351 3.53903 0.0264755 5.37352 -0.0216984 7.30024C-0.0698723 9.22695 0.624341 11.0985 1.91735 12.5277C3.21036 13.9569 5.00323 14.8345 6.92513 14.9789C8.84703 15.1233 10.7509 14.5235 12.243 13.3035L16.7197 17.7803C16.8612 17.9169 17.0506 17.9925 17.2473 17.9908C17.4439 17.9891 17.632 17.9102 17.7711 17.7711C17.9101 17.6321 17.989 17.444 17.9907 17.2473C17.9924 17.0507 17.9168 16.8612 17.7802 16.7198ZM7.49996 13.5C6.31327 13.5 5.15323 13.1481 4.16654 12.4888C3.17984 11.8295 2.41081 10.8925 1.95668 9.79611C1.50256 8.69975 1.38374 7.49335 1.61525 6.32946C1.84676 5.16558 2.4182 4.09648 3.25732 3.25736C4.09643 2.41825 5.16553 1.8468 6.32942 1.61529C7.4933 1.38378 8.6997 1.5026 9.79606 1.95673C10.8924 2.41085 11.8295 3.17989 12.4888 4.16658C13.1481 5.15328 13.5 6.31332 13.5 7.5C13.4982 9.09076 12.8655 10.6158 11.7406 11.7407C10.6158 12.8655 9.09071 13.4982 7.49996 13.5Z" fill="white"/>
</g>
<defs>
<clipPath id="clip0_38_27">
<rect width="18" height="18" fill="white"/>
</clipPath>
</defs>
</svg>
