<svg width="24" height="30" viewBox="0 0 24 30" fill="none" xmlns="http://www.w3.org/2000/svg">
<path d="M23.25 30H20.75V23.6963C20.749 22.7162 20.3593 21.7767 19.6663 21.0837C18.9733 20.3907 18.0338 20.001 17.0537 20H6.94625C5.96625 20.001 5.02667 20.3907 4.3337 21.0837C3.64074 21.7767 3.25099 22.7162 3.25 23.6963V30H0.75V23.6963C0.751985 22.0535 1.40544 20.4786 2.56703 19.317C3.72862 18.1554 5.30351 17.502 6.94625 17.5H17.0537C18.6965 17.502 20.2714 18.1554 21.433 19.317C22.5946 20.4786 23.248 22.0535 23.25 23.6963V30Z" fill="white"/>
<path d="M12 15C10.5166 15 9.0666 14.5601 7.83323 13.736C6.59986 12.9119 5.63856 11.7406 5.07091 10.3701C4.50325 8.99968 4.35472 7.49168 4.64411 6.03683C4.9335 4.58197 5.64781 3.2456 6.6967 2.1967C7.7456 1.14781 9.08197 0.433503 10.5368 0.144114C11.9917 -0.145275 13.4997 0.00324965 14.8701 0.570907C16.2406 1.13856 17.4119 2.09986 18.236 3.33323C19.0601 4.5666 19.5 6.01664 19.5 7.5C19.498 9.48852 18.7072 11.395 17.3011 12.8011C15.895 14.2072 13.9885 14.998 12 15ZM12 2.5C11.0111 2.5 10.0444 2.79325 9.22215 3.34266C8.39991 3.89206 7.75904 4.67296 7.38061 5.58659C7.00217 6.50022 6.90315 7.50555 7.09608 8.47546C7.289 9.44536 7.76521 10.3363 8.46447 11.0355C9.16373 11.7348 10.0546 12.211 11.0246 12.4039C11.9945 12.5969 12.9998 12.4978 13.9134 12.1194C14.8271 11.741 15.6079 11.1001 16.1574 10.2779C16.7068 9.45561 17 8.48891 17 7.5C17 6.17392 16.4732 4.90215 15.5355 3.96447C14.5979 3.02679 13.3261 2.5 12 2.5Z" fill="white"/>
</svg>
