<svg width="24" height="24" viewBox="0 0 24 24" fill="none" xmlns="http://www.w3.org/2000/svg">
<g clip-path="url(#clip0_124_38)">
<path d="M20 0H5C4.20435 0 3.44129 0.31607 2.87868 0.87868C2.31607 1.44129 2 2.20435 2 3V21C2 21.7956 2.31607 22.5587 2.87868 23.1213C3.44129 23.6839 4.20435 24 5 24H22V2C22 1.46957 21.7893 0.960859 21.4142 0.585786C21.0391 0.210714 20.5304 0 20 0ZM20 18H8V2H20V18ZM5 2H6V18H5.017C4.66973 18.003 4.32562 18.0663 4 18.187V3C4 2.73478 4.10536 2.48043 4.29289 2.29289C4.48043 2.10536 4.73478 2 5 2ZM5 22C4.73616 22 4.48301 21.8957 4.29571 21.7099C4.1084 21.5241 4.00211 21.2718 4 21.008H4.015C4.01394 20.876 4.03903 20.7451 4.08881 20.6229C4.13859 20.5006 4.21209 20.3894 4.30505 20.2957C4.39801 20.202 4.50861 20.1276 4.63046 20.0769C4.75231 20.0261 4.883 20 5.015 20H20V22H5Z" fill="white"/>
</g>
<defs>
<clipPath id="clip0_124_38">
<rect width="24" height="24" fill="white"/>
</clipPath>
</defs>
</svg>
