<svg width="72" height="72" viewBox="0 0 72 72" fill="none" xmlns="http://www.w3.org/2000/svg">
<g clip-path="url(#clip0_2870_155600)">
<path d="M12.3828 24.0422H58.5745V71.9771L33.2998 69.3624L12.3828 24.0422Z" fill="#2660AB"/>
<path fill-rule="evenodd" clip-rule="evenodd" d="M58.8306 24.1704V71.4897H50.2271C48.0028 71.4897 45.8241 71.2949 43.7069 70.9215M32.75 67.1478C20.9678 60.8834 12.9453 48.4825 12.9453 34.2078V24.1704" fill="#2660AB"/>
<path fill-rule="evenodd" clip-rule="evenodd" d="M58.3189 70.9792V24.1704H59.3399V71.4897C59.3399 71.7716 59.1113 72.0002 58.8294 72.0002H50.2259C47.9717 72.0002 45.7633 71.8028 43.617 71.4242L43.7943 70.4187C45.8823 70.787 48.0315 70.9792 50.2259 70.9792H58.3189ZM13.4545 24.1704V34.2078C13.4545 48.2863 21.3662 60.5178 32.9884 66.6971L32.5092 67.5985C20.5669 61.249 12.4336 48.6787 12.4336 34.2078V24.1704H13.4545Z" fill="#0D0C22"/>
<path fill-rule="evenodd" clip-rule="evenodd" d="M55.6789 33.629C58.1034 29.7617 58.8307 26.8163 58.8307 23.4531C58.8307 10.7822 48.5589 0.510437 35.888 0.510437C23.2171 0.510437 12.9453 10.7822 12.9453 23.4531C12.9453 31.9004 20.5929 41.9378 35.888 53.5654C39.1753 50.9866 41.5324 49.0751 42.9595 47.8307" fill="#26A9E0"/>
<path fill-rule="evenodd" clip-rule="evenodd" d="M12.4336 23.4532C12.4336 10.5003 22.9339 0 35.8868 0C48.8396 0 59.3399 10.5003 59.3399 23.4532C59.3399 26.9175 58.5828 29.9561 56.1101 33.9002L55.2451 33.3579C57.6216 29.5673 58.319 26.7153 58.319 23.4532C58.319 11.0642 48.2757 1.02095 35.8868 1.02095C23.4978 1.02095 13.4545 11.0642 13.4545 23.4532C13.4545 27.5218 15.2978 32.0356 19.0858 37.0073C22.8192 41.9074 28.4115 47.2122 35.8821 52.9201C39.0065 50.4653 41.2514 48.6418 42.6228 47.446L43.2938 48.2155C41.8559 49.4692 39.4898 51.3877 36.2018 53.9671C36.0191 54.1104 35.7627 54.1123 35.5778 53.9718C27.9106 48.1431 22.1358 42.6951 18.2737 37.626C14.4141 32.5603 12.4336 27.8317 12.4336 23.4532Z" fill="#0D0C22"/>
<path d="M42.3398 42.094C42.3398 34.9244 49.8775 33.6913 58.9847 33.6913V70.4345C51.0982 62.548 42.3398 49.2636 42.3398 42.094Z" fill="#2660AB"/>
<path fill-rule="evenodd" clip-rule="evenodd" d="M47.0588 34.7299C50.1808 33.4859 54.4297 33.1809 58.9854 33.1809C59.2674 33.1809 59.4959 33.4095 59.4959 33.6914V70.4346C59.4959 70.6411 59.3715 70.8273 59.1808 70.9063C58.99 70.9853 58.7705 70.9416 58.6245 70.7956C54.6513 66.8225 50.4653 61.4975 47.2698 56.2614C45.6716 53.6427 44.3157 51.0373 43.3579 48.6264C42.4029 46.2226 41.8301 43.979 41.8301 42.0941C41.8301 40.2069 42.3282 38.6734 43.2533 37.4488C44.1741 36.2299 45.4886 35.3556 47.0588 34.7299ZM44.0679 38.0642C43.2951 39.0873 42.851 40.3965 42.851 42.0941C42.851 43.794 43.373 45.8995 44.3067 48.2495C45.2375 50.5923 46.564 53.1452 48.1413 55.7296C51.0632 60.5174 54.8265 65.3827 58.475 69.1839V34.2032C54.1298 34.2264 50.2507 34.5571 47.4368 35.6784C45.9842 36.2572 44.845 37.0355 44.0679 38.0642Z" fill="#0D0C22"/>
<path fill-rule="evenodd" clip-rule="evenodd" d="M60.9797 4.86389C61.2617 4.86389 61.4902 5.09244 61.4902 5.37437C61.4902 7.99992 59.275 10.081 56.6545 9.91726L46.7104 9.29576C42.0258 9.00297 37.8783 12.2997 37.1067 16.9296L36.0996 16.7618C36.9573 11.6157 41.5672 7.95136 46.7741 8.2768L56.7182 8.8983C58.7509 9.02535 60.4693 7.41101 60.4693 5.37437C60.4693 5.09244 60.6978 4.86389 60.9797 4.86389Z" fill="#0D0C22"/>
<path fill-rule="evenodd" clip-rule="evenodd" d="M11.5105 4.86389C11.2286 4.86389 11 5.09244 11 5.37437C11 7.99992 13.2153 10.081 15.8357 9.91726L25.7798 9.29576C30.4644 9.00297 34.6119 12.2997 35.3836 16.9296L36.3906 16.7618C35.5329 11.6157 30.9231 7.95136 25.7161 8.2768L15.772 8.8983C13.7393 9.02535 12.021 7.41101 12.021 5.37437C12.021 5.09244 11.7924 4.86389 11.5105 4.86389Z" fill="#0D0C22"/>
<path fill-rule="evenodd" clip-rule="evenodd" d="M43.7744 71.4895C43.7744 67.9258 40.8855 65.0369 37.3218 65.0369C33.7581 65.0369 30.8691 67.9258 30.8691 71.4895H43.7744Z" fill="#FFC808"/>
<path fill-rule="evenodd" clip-rule="evenodd" d="M30.3574 71.4896C30.3574 67.644 33.4749 64.5265 37.3205 64.5265C41.1661 64.5265 44.2836 67.644 44.2836 71.4896C44.2836 71.7715 44.0551 72.0001 43.7732 72.0001H30.8679C30.586 72.0001 30.3574 71.7715 30.3574 71.4896ZM31.4 70.9791H43.2411C42.9822 67.9363 40.4303 65.5474 37.3205 65.5474C34.2107 65.5474 31.6589 67.9363 31.4 70.9791Z" fill="#0D0C22"/>
<path fill-rule="evenodd" clip-rule="evenodd" d="M36.2462 30.6228L38.3971 27.755C39.7264 25.9825 38.4617 23.4532 36.2462 23.4532C34.0307 23.4532 32.766 25.9825 34.0953 27.755L36.2462 30.6228Z" fill="#F34A57"/>
<path fill-rule="evenodd" clip-rule="evenodd" d="M36.2459 31.1333C36.4066 31.1333 36.5579 31.0577 36.6543 30.9291L38.8051 28.0613C40.3869 25.9523 38.8821 22.9428 36.2459 22.9428C33.6097 22.9428 32.1049 25.9523 33.6866 28.0613L35.8375 30.9291C35.9339 31.0577 36.0852 31.1333 36.2459 31.1333ZM36.2459 29.772L34.5034 27.4487C33.4265 26.0128 34.451 23.9637 36.2459 23.9637C38.0408 23.9637 39.0653 26.0128 37.9884 27.4487L36.2459 29.772Z" fill="#0D0C22"/>
<path d="M26.3252 31.0143C21.0858 31.0143 16.7383 26.6668 16.7383 21.4274C16.7383 16.188 20.9744 11.8404 26.3252 11.8404C31.5646 11.8404 35.9122 16.188 35.9122 21.4274C35.9122 26.7783 31.5646 31.0143 26.3252 31.0143Z" fill="white"/>
<path fill-rule="evenodd" clip-rule="evenodd" d="M26.3259 12.3509C21.2609 12.3509 17.2495 16.4661 17.2495 21.4274C17.2495 26.3849 21.3685 30.5039 26.3259 30.5039C31.2873 30.5039 35.4024 26.4926 35.4024 21.4274C35.4024 16.4699 31.2834 12.3509 26.3259 12.3509ZM16.2285 21.4274C16.2285 15.91 20.6893 11.33 26.3259 11.33C31.8472 11.33 36.4234 15.9061 36.4234 21.4274C36.4234 27.0641 31.8433 31.5248 26.3259 31.5248C20.8046 31.5248 16.2285 26.9488 16.2285 21.4274Z" fill="#0D0C22"/>
<path d="M31.1202 21.5389C31.1202 24.2143 29.0021 26.3324 26.3267 26.3324C23.6512 26.3324 21.5332 24.2143 21.5332 21.5389C21.5332 18.8634 23.6512 16.7454 26.3267 16.7454C29.0021 16.7454 31.1202 18.8634 31.1202 21.5389Z" fill="#FFC808"/>
<path fill-rule="evenodd" clip-rule="evenodd" d="M26.3254 17.2559C23.9319 17.2559 22.0424 19.1454 22.0424 21.539C22.0424 23.9325 23.9319 25.822 26.3254 25.822C28.719 25.822 30.6085 23.9325 30.6085 21.539C30.6085 19.1454 28.719 17.2559 26.3254 17.2559ZM21.0215 21.539C21.0215 18.5816 23.3681 16.235 26.3254 16.235C29.2828 16.235 31.6295 18.5816 31.6295 21.539C31.6295 24.4964 29.2828 26.8429 26.3254 26.8429C23.3681 26.8429 21.0215 24.4963 21.0215 21.539Z" fill="#0D0C22"/>
<path d="M27.9966 21.539C27.9966 22.4308 27.2163 23.2112 26.3245 23.2112C25.4327 23.2112 24.6523 22.4308 24.6523 21.539C24.6523 20.6472 25.4327 19.8668 26.3245 19.8668C27.2163 19.8668 27.9966 20.5357 27.9966 21.539Z" fill="#0D0C22"/>
<path d="M46.3721 31.0143C41.1327 31.0143 36.7852 26.6668 36.7852 21.4274C36.7852 16.188 41.0212 11.8404 46.3721 11.8404C51.6115 11.8404 55.9591 16.188 55.9591 21.4274C55.9591 26.7783 51.6115 31.0143 46.3721 31.0143Z" fill="white"/>
<path fill-rule="evenodd" clip-rule="evenodd" d="M46.3728 12.3509C41.3077 12.3509 37.2963 16.4661 37.2963 21.4274C37.2963 26.3849 41.4153 30.5039 46.3728 30.5039C51.3341 30.5039 55.4493 26.4926 55.4493 21.4274C55.4493 16.4699 51.3302 12.3509 46.3728 12.3509ZM36.2754 21.4274C36.2754 15.91 40.7362 11.33 46.3728 11.33C51.8941 11.33 56.4703 15.9061 56.4703 21.4274C56.4703 27.0641 51.8902 31.5248 46.3728 31.5248C40.8515 31.5248 36.2754 26.9488 36.2754 21.4274Z" fill="#0D0C22"/>
<path d="M51.1671 21.5389C51.1671 24.2143 49.049 26.3324 46.3735 26.3324C43.6981 26.3324 41.5801 24.2143 41.5801 21.5389C41.5801 18.8634 43.6981 16.7454 46.3735 16.7454C49.049 16.7454 51.1671 18.8634 51.1671 21.5389Z" fill="#FFC808"/>
<path fill-rule="evenodd" clip-rule="evenodd" d="M46.3723 17.2559C43.9788 17.2559 42.0893 19.1454 42.0893 21.539C42.0893 23.9325 43.9788 25.822 46.3723 25.822C48.7658 25.822 50.6554 23.9325 50.6554 21.539C50.6554 19.1454 48.7658 17.2559 46.3723 17.2559ZM41.0684 21.539C41.0684 18.5816 43.4149 16.235 46.3723 16.235C49.3297 16.235 51.6764 18.5816 51.6764 21.539C51.6764 24.4964 49.3297 26.8429 46.3723 26.8429C43.4149 26.8429 41.0684 24.4963 41.0684 21.539Z" fill="#0D0C22"/>
<path d="M48.0435 21.539C48.0435 22.4308 47.2632 23.2112 46.3714 23.2112C45.4796 23.2112 44.6992 22.4308 44.6992 21.539C44.6992 20.6472 45.4796 19.8668 46.3714 19.8668C47.2632 19.8668 48.0435 20.5357 48.0435 21.539Z" fill="#0D0C22"/>
</g>
<defs>
<clipPath id="clip0_2870_155600">
<rect width="72" height="72" fill="white"/>
</clipPath>
</defs>
</svg>
