<svg width="16" height="16" viewBox="0 0 16 16" fill="none" xmlns="http://www.w3.org/2000/svg">
<g clip-path="url(#clip0_103_2)">
<path d="M10.1114 4.23474L1.16654 7.45539C0.745733 7.59972 0.469243 7.96736 0.446456 8.41247C0.423668 8.85759 0.65914 9.25106 1.09514 9.45007L5.46429 10.7809L6.83459 15.1531C7.02296 15.5572 7.41643 15.7926 7.86307 15.7683C8.13652 15.7531 8.3811 15.6422 8.56189 15.4614C8.67582 15.3475 8.76242 15.2093 8.81863 15.0467L12.015 6.13219C12.2125 5.58529 12.0788 4.98977 11.6671 4.57808C11.2539 4.1679 10.6568 4.03573 10.1114 4.23474ZM11.582 5.97876L8.38414 14.8978C8.2854 15.185 8.03625 15.3004 7.83724 15.311C7.63823 15.3217 7.37845 15.2351 7.26147 14.9875L6.38795 12.1998C6.38643 12.1952 6.38491 12.1907 6.38339 12.1861C6.19957 11.6043 6.01423 11.0239 5.83041 10.4421C5.28807 10.2674 4.74572 10.0927 4.20337 9.92101L1.25769 9.02318C0.981205 8.89557 0.894612 8.63579 0.905246 8.43678C0.912842 8.30461 0.962975 8.15118 1.07995 8.0342C1.14072 7.97343 1.2182 7.9233 1.31694 7.88836C1.31694 7.88836 1.31846 7.88684 1.31998 7.88836L10.2664 4.66619C10.5763 4.55377 10.8953 4.59023 11.1612 4.75886C11.2691 4.86672 11.3769 4.97458 11.4848 5.08244C11.6564 5.34526 11.6929 5.66733 11.582 5.97876Z" fill="white"/>
</g>
<defs>
<clipPath id="clip0_103_2">
<rect width="11" height="11" fill="white" transform="translate(0 7.77817) rotate(-45)"/>
</clipPath>
</defs>
</svg>
