<svg width="16" height="16" viewBox="0 0 16 16" fill="none" xmlns="http://www.w3.org/2000/svg">
<g clip-path="url(#clip0_109_9)">
<path d="M12.9328 0.643755L1.43283 4.78438C0.892203 4.97032 0.535953 5.44219 0.506265 6.01563C0.476578 6.5875 0.779703 7.09375 1.34064 7.35L6.95783 9.06094L8.72033 14.6828C8.96251 15.2031 9.46877 15.5047 10.0422 15.4734C10.3938 15.4547 10.7078 15.3109 10.9406 15.0781C11.0875 14.9313 11.1985 14.7531 11.2703 14.5453L15.3797 3.08438C15.6344 2.38125 15.461 1.61563 14.9328 1.08594C14.4016 0.557817 13.6344 0.387505 12.9328 0.643755ZM14.8235 2.88594L10.7125 14.3531C10.586 14.7219 10.2656 14.8703 10.0094 14.8844C9.75314 14.8984 9.41877 14.7859 9.26877 14.4688L8.14533 10.8844C8.14377 10.8781 8.1422 10.8734 8.13908 10.8672C7.90314 10.1188 7.66408 9.37344 7.42814 8.625C6.73127 8.4 6.03283 8.175 5.33595 7.95469L1.55002 6.8C1.19377 6.63594 1.08283 6.30157 1.09689 6.04532C1.10627 5.875 1.17189 5.67813 1.32189 5.52813C1.40002 5.45 1.50002 5.38594 1.62658 5.34063C1.62658 5.34063 1.62814 5.33907 1.6297 5.34063L13.1313 1.19844C13.5297 1.05313 13.9406 1.1 14.2813 1.31719C14.4203 1.45625 14.5594 1.59532 14.6969 1.73282C14.9188 2.07188 14.9656 2.48594 14.8235 2.88594Z" fill="white" stroke="white" stroke-miterlimit="10"/>
</g>
<defs>
<clipPath id="clip0_109_9">
<rect width="16" height="16" fill="white"/>
</clipPath>
</defs>
</svg>
