<?xml version="1.0" encoding="utf-8"?>
<!-- Generator: Adobe Illustrator 27.2.0, SVG Export Plug-In . SVG Version: 6.00 Build 0)  -->
<svg version="1.1" id="Layer_1" xmlns="http://www.w3.org/2000/svg" xmlns:xlink="http://www.w3.org/1999/xlink" x="0px" y="0px"
	 viewBox="0 0 512 512" style="enable-background:new 0 0 512 512;" xml:space="preserve">
<path d="M341.3,298.7c-20.2,0-38.2,9.4-49.9,24l-81.7-45.4c2.4-6.7,3.7-13.8,3.7-21.3c0-7.5-1.3-14.6-3.7-21.3l81.7-45.4
	c11.7,14.6,29.8,24,49.9,24c35.3,0,64-28.7,64-64c0-35.3-28.7-64-64-64c-35.3,0-64,28.7-64,64c0,7.5,1.3,14.7,3.7,21.3L199.3,216
	c-11.7-14.6-29.8-24-49.9-24c-35.3,0-64,28.7-64,64c0,35.3,28.7,64,64,64c20.2,0,38.2-9.4,49.9-24l81.7,45.4
	c-2.4,6.7-3.7,13.8-3.7,21.3c0,35.3,28.7,64,64,64c35.3,0,64-28.7,64-64C405.3,327.4,376.6,298.7,341.3,298.7z M341.3,106.7
	c23.5,0,42.7,19.1,42.7,42.7c0,23.5-19.1,42.7-42.7,42.7c-24.1,0-42.7-21.3-42.7-42.7C298.7,125.8,317.8,106.7,341.3,106.7z
	 M149.3,298.7c-23.5,0-42.7-19.1-42.7-42.7c0-23.5,19.1-42.7,42.7-42.7c23.5,0,42.7,19.1,42.7,42.7
	C192,279.5,172.9,298.7,149.3,298.7z M341.3,405.3c-23.5,0-42.7-19.1-42.7-42.7c0-29,26.9-42.7,42.7-42.7
	c23.5,0,42.7,19.1,42.7,42.7C384,386.2,364.9,405.3,341.3,405.3z"/>
</svg>
