<svg width="187" height="172" viewBox="0 0 187 172" fill="none" xmlns="http://www.w3.org/2000/svg">
<mask id="mask0_671_20598" style="mask-type:alpha" maskUnits="userSpaceOnUse" x="0" y="0" width="188" height="172">
<path fill-rule="evenodd" clip-rule="evenodd" d="M0 92.1518C0 59.4921 19.5832 31.4122 47.6337 19.0419C47.85 17.6477 48.0645 16.4209 48.2141 15.6817C48.5295 14.1234 47.5152 13.4668 45.85 12.389C45.2435 11.9964 44.5507 11.5479 43.8043 10.9796C41.0086 8.85107 40.148 3.92516 40.148 3.92516C40.148 3.92516 42.6229 5.37979 44.8813 5.49168C45.7717 5.5358 46.813 4.65755 48.0774 3.59116C50.0197 1.95296 52.4884 -0.12926 55.7455 0.00629191C61.1255 0.230082 75.7555 8.2916 78.0139 10.1938C78.4131 10.53 79.0201 11.2863 79.749 12.3035C112.368 12.3042 140.413 31.9144 152.767 60.0026C154.638 55.4972 155.79 51.2034 156.717 47.4683C156.431 46.4663 156.276 45.3693 156.326 44.1854C156.518 39.5973 157.853 39.403 158.842 39.2591L158.842 39.2591C158.876 39.2542 158.909 39.2493 158.942 39.2443C159.181 38.5857 159.434 37.9864 159.71 37.4527C159.751 37.3737 159.791 37.2971 159.831 37.2229C159.806 37.0892 159.778 36.9486 159.749 36.8006C159.51 35.6 159.174 33.91 159.556 31.4043C159.903 29.1232 161.034 28.4249 162.294 27.6462C163.465 26.9232 164.748 26.1308 165.62 23.9375L165.619 23.9398C166.389 22.0047 167.39 21.2771 168.407 20.5375C169.785 19.5359 171.193 18.5123 172.099 14.438C173.087 9.99947 174.986 10.1424 176.669 10.2692C177.673 10.3448 178.601 10.4146 179.213 9.5038C180.855 7.06649 185.336 8.31478 185.336 8.31478C185.336 8.31478 182.284 11.5681 182.426 15.2429L183.438 14.7436C184.093 14.4206 187 11.0539 187 11.0539L185.806 13.7791C184.619 16.4896 182.875 17.2601 182.856 17.2683C183.695 19.3514 183.228 20.8095 182.73 22.3619C182.174 24.097 181.579 25.95 182.73 28.9252C184.065 32.3769 182.996 32.6673 181.065 33.1921C179.843 33.5244 178.274 33.9507 176.751 35.333C172.821 38.8984 169.792 42.2251 168.224 46.8617C167.472 49.0877 165.97 50.9337 164.611 52.2518C162.251 57.999 159.45 63.9235 156.364 69.9255C158.402 76.9811 159.494 84.4387 159.494 92.1518C159.494 136.251 123.79 172 79.7472 172C35.704 172 0 136.251 0 92.1518ZM176.541 25.8768C175.839 27.9509 177.54 30.9784 177.54 30.9784C177.54 30.9784 177.794 28.6164 178.781 26.5021C179.768 24.3879 177.983 21.6065 177.983 21.6065L177.616 21.4821C177.616 21.4821 177.24 23.8041 176.538 25.8782L176.541 25.8768ZM167.245 25.5811L168.232 23.4668C168.232 23.4668 166.923 24.5187 166.633 25.3734C166.344 26.228 167.245 25.5811 167.245 25.5811Z" fill="#623939"/>
</mask>
<g mask="url(#mask0_671_20598)">
<ellipse cx="79.7472" cy="92.152" rx="79.7472" ry="79.8483" fill="#2D9CDB"/>
<path d="M96.2718 73.5645C96.2718 73.5645 105.12 81.3386 109.01 90.4097C112.903 99.4808 118.884 111.309 118.056 118.999C117.226 126.689 118.092 143.967 108.58 141.375C99.0649 138.784 87.2 96.0248 87.2 96.0248L96.2743 73.5645H96.2718Z" fill="#26297C"/>
<path d="M115.765 37.9396C115.765 37.9396 118.077 42.5579 115.187 46.5962C112.297 50.6372 104.977 55.4461 101.512 56.9847C98.0438 58.5232 85.909 67.3731 69.5375 66.6051C53.1659 65.8345 41.8001 62.1801 39.4882 59.487C37.1763 56.7939 30.2432 52.1757 30.8212 47.1735C31.3992 42.1713 33.93 41.4898 33.93 41.4898C33.93 41.4898 45.4614 31.9762 67.4191 32.1669C89.3768 32.3602 101.321 32.7442 104.788 33.1282C108.256 33.5122 115.767 37.9371 115.767 37.9371L115.765 37.9396Z" fill="#272D41"/>
<path d="M52.4609 35.3397C52.4609 35.3397 55.3864 46.5699 51.2769 63.8474C47.17 81.125 42.3019 83.9326 42.6812 93.8658C43.0606 103.799 66.2914 93.8658 66.2914 93.8658L64.4658 56.9379L63.5798 33.8291L52.4583 35.3397H52.4609Z" fill="#646AA2"/>
<path d="M93.3056 83.0527C93.3056 83.0527 106.026 126.593 108.656 145.564C111.286 164.535 120.541 226.68 120.541 226.68C120.541 226.68 89.0091 225.155 74.3842 225.097C62.0559 225.049 30.4406 225.097 30.4406 225.097C30.4406 225.097 24.1097 160.237 33.3343 105.816C35.4629 93.2606 93.3081 83.0527 93.3081 83.0527H93.3056Z" fill="#26297C"/>
<path d="M93.578 70.4927C93.578 70.4927 100.559 81.7178 100.559 97.3628C100.559 110.696 109.496 121.476 105.998 133.573C105.341 135.842 102.092 133.655 100.066 135.056C91.2738 141.129 73.0207 145.767 68.8934 144.638C63.8139 143.25 45.0567 109.267 42.5029 99.4023C39.9492 89.5378 54.3169 72.6111 59.3913 71.042C64.4657 69.473 93.5806 70.4927 93.5806 70.4927H93.578Z" fill="#26297C"/>
<path d="M82.8818 75.5732L81.9983 70.1514H87.6176C87.6176 70.1514 85.9651 86.4702 78.1944 83.7517C70.4211 81.0357 53.907 75.0824 53.907 75.0824L57.8229 70.66L82.8818 75.5706V75.5732Z" fill="#535585"/>
<path d="M63.2182 48.5332L62.3881 54.0084L59.2004 75.0675L80.1931 81.7889L78.5356 64.7351L63.2182 48.5332Z" fill="#F8DEB8"/>
<path d="M78.8743 64.5489L79.1162 70.9422C79.1162 70.9422 78.1894 74.1185 73.7235 72.2697C69.2551 70.4209 61.5302 59.6662 61.5302 59.6662L62.653 50.5977L78.8769 64.5489H78.8743Z" fill="#9EA7F5"/>
<path d="M51.0122 85.7969L63.4424 106.884L67.5289 104.844C67.5289 104.844 71.5543 117.428 76.0431 123.892C80.8171 130.771 89.1327 130.682 88.9825 132.055C88.4707 136.755 71.786 144.374 68.8911 144.638C65.9961 144.903 54.6787 130.746 50.503 124.062C46.3274 117.377 33.9864 87.3303 51.0148 85.7994L51.0122 85.7969Z" fill="#26297C"/>
<path d="M75.1748 29.3105C75.1748 29.3105 76.4199 30.7575 76.8425 31.8155C77.2652 32.8734 76.8247 33.1735 76.7763 34.389C76.728 35.6021 80.6566 32.7691 79.4727 31.5484C78.2887 30.3252 75.1748 29.3131 75.1748 29.3131V29.3105Z" fill="#526ABE"/>
<path d="M79.205 27.9907C82.6346 27.7821 81.0993 25.501 84.1699 27.9805C86.5938 29.9387 89.3997 35.3732 89.2647 39.3556C88.9617 48.3835 89.7154 49.2431 88.4474 55.4227C87.7523 58.8152 85.8249 63.0189 84.2056 65.4195C82.874 67.3929 81.8504 68.222 79.9943 68.6187C75.8798 69.4935 71.2357 68.4254 67.2586 65.0075C63.2816 61.5922 61.3873 53.6426 61.3873 53.6426C61.3873 53.6426 56.5751 37.7484 60.7457 33.1811C65.5553 28.7536 70.151 25.857 73.4992 25.8545C76.692 25.8545 77.6799 28.0822 79.2025 27.9907H79.205Z" fill="#F8DEB8"/>
<path d="M82.3805 58.146C79.5136 59.2802 72.7562 57.3398 72.7562 57.3398" stroke="#5076C1" stroke-width="1.69" stroke-linecap="round" stroke-linejoin="round"/>
<path d="M86.65 44.7822C86.65 44.7822 86.2325 44.8814 85.3973 44.9119C84.8601 44.9323 84.1599 45.3188 83.9129 45.4714C83.2815 45.8579 83.4852 47.4499 84.8728 47.6711C86.1128 47.8695 87.5692 46.2928 86.65 44.7822Z" fill="black"/>
<path d="M62.3094 48.3706C62.3094 48.3706 59.2795 42.7556 57.1179 43.6202C54.9562 44.4823 55.1625 34.2617 55.1625 34.2617L64.1833 36.8531L62.312 48.3706H62.3094Z" fill="#646AA2"/>
<path d="M73.1736 44.4182C73.1736 44.4182 72.8579 44.1435 71.9566 44.1766C71.3761 44.1995 70.6199 44.6165 70.3525 44.7818C69.6702 45.2014 69.8917 46.918 71.3914 47.1571C72.7306 47.3707 74.1692 46.0483 73.1736 44.4182Z" fill="black"/>
<path d="M62.7093 49.3717C62.7093 49.3717 58.1874 40.8118 55.9163 44.5755C53.6451 48.3392 57.0366 54.351 59.0684 55.1775C61.1002 56.004 63.1498 53.9797 63.1498 53.9797L62.7093 49.3717Z" fill="#B8C3FF"/>
<path d="M84.514 42.8594C87.6788 42.9484 87.1671 44.9421 87.1671 44.9421C87.1671 44.9421 85.5248 45.7051 83.2333 45.4686C80.9418 45.2321 80.3333 44.8404 80.3333 44.8404L84.514 42.8594Z" fill="#F8DEB8"/>
<path d="M71.348 42.5514C74.5128 42.6404 74.0011 44.6341 74.0011 44.6341C74.0011 44.6341 72.3588 45.3971 70.0673 45.1606C67.7758 44.9241 67.0603 44.0314 67.0603 44.0314L71.348 42.5488" fill="#F8DEB8"/>
<path d="M59.2793 37.2852C59.2793 37.2852 54.406 43.5589 55.977 51.2211C57.5479 58.8834 56.4123 61.6833 55.1597 68.3843C53.907 75.0853 43.2769 74.4317 42.1974 83.5003C41.1153 92.5714 47.3813 108.984 48.14 111.576C48.8988 114.167 53.5683 110.711 54.4773 99.4809C55.3863 88.2507 73.1327 76.3721 67.2613 65.0071C61.39 53.6422 63.9565 38.2235 63.9565 38.2235L59.2793 37.2852Z" fill="#9EA5BB"/>
<path d="M87.167 44.9452C87.167 44.9452 87.004 45.23 85.1072 45.5962C83.2918 45.9497 80.761 45.0546 80.761 45.0546M73.7109 44.7314C73.7109 44.7314 72.8274 45.1052 70.9942 45.2807C69.1585 45.4562 67.2998 44.2686 67.2998 44.2686" stroke="black" stroke-width="0.46" stroke-linecap="round" stroke-linejoin="round"/>
<path d="M75.5896 42.122C75.5896 42.122 72.7074 41.1506 70.1129 42.4476C67.5184 43.7445 62.472 42.4476 62.472 42.4476L65.9322 41.5829C65.9322 41.5829 61.4638 42.8417 59.0144 38.9C59.0144 38.9 63.1213 39.9986 63.6993 39.8892C63.6993 39.8892 61.3568 39.3857 60.4199 37.6564L59.4829 35.9297C59.4829 35.9297 62.5815 37.9082 65.3211 37.9082C68.0607 37.9082 71.6279 39.0246 73.1046 39.9604C74.5814 40.8963 75.5922 42.1195 75.5922 42.1195L75.5896 42.122Z" fill="#9EA5BB"/>
<path d="M79.972 42.668C79.972 42.668 82.7931 37.1928 87.1749 36.969C91.5542 36.7427 90.6376 36.6943 90.6376 36.6943L88.9114 38.8992C88.9114 38.8992 91.4091 39.4815 92.8324 38.6449C92.8324 38.6449 89.5963 41.1167 88.7993 40.9591C88.7993 40.9591 90.9585 41.4194 91.5313 41.4499C91.5313 41.4499 89.6472 42.2687 88.1577 42.1874C86.6682 42.1085 82.1387 40.8319 79.972 42.668Z" fill="#9EA5BB"/>
<path d="M66.1971 35.7002C66.1971 35.7002 64.3231 45.491 66.3422 52.4005C68.3613 59.31 80.1371 56.8916 80.1371 56.8916C80.1371 56.8916 82.1434 59.0379 84.9314 57.6545C88.6105 55.8311 88.6615 54.023 88.7811 53.4279C88.9008 52.8328 89.3438 49.1784 89.3438 49.1784C89.3438 49.1784 90.7009 58.0156 91.7092 61.3292C92.7174 64.6428 97.331 72.7043 97.4761 77.3098L96.035 75.0058C96.035 75.0058 99.3501 87.388 98.0541 94.8748C98.0541 94.8748 95.8924 87.1006 94.4513 84.2219C94.4513 84.2219 98.0592 95.8844 94.3062 111.695C94.3062 111.695 94.0185 104.953 92.72 102.074C92.72 102.074 95.3145 123.095 90.1255 134.9C84.9365 146.705 85.0816 153.617 85.8022 156.351C85.8022 156.351 63.5186 133.969 60.2468 121.478C56.9725 108.984 56.6848 99.3379 56.6848 99.3379C56.6848 99.3379 54.0903 113.734 54.378 116.038C54.378 116.038 50.5537 93.8754 53.907 85.7375L50.3424 89.1173C50.3424 89.1173 55.5314 75.4407 58.1259 69.3933C60.7204 63.3459 61.5275 36.6971 61.5275 36.6971L66.1971 35.7027V35.7002Z" fill="#9EA5BB"/>
<path d="M28.1738 102.631C28.1738 102.631 24.8078 191.687 42.1978 207.523C59.5877 223.361 63.1472 146.56 63.1472 146.56L42.6637 115.222L28.1763 102.634L28.1738 102.631Z" fill="#4459A5"/>
<path d="M48.2826 82.4193C48.2826 82.4193 37.8944 74.668 30.1262 93.7283C22.358 112.789 38.7932 145.836 43.669 143.949C48.5448 142.062 59.8903 140.099 59.735 136.66C59.6612 134.974 54.1004 122.668 52.9801 110.858C51.8166 98.5855 51.5492 83.1517 48.2775 82.4193H48.2826Z" fill="#4459A5"/>
<path d="M57.9811 129.115C57.9811 129.115 58.503 126.3 51.0149 127.956C40.9908 130.173 38.297 139.369 38.297 139.369L39.9495 142.08C39.9495 142.08 49.4007 125.308 57.9836 129.115H57.9811Z" fill="#26297C"/>
<path d="M61.3316 129.245C61.3316 129.245 59.5085 127.373 55.2871 128.014C51.0631 128.657 43.5953 131.345 41.3802 135.348C39.1651 139.351 38.5082 140.645 39.9544 143.473C41.4006 146.301 43.5393 148.781 46.7016 148.61C49.8639 148.44 50.093 147.995 50.093 147.995C50.093 147.995 43.8932 146.294 46.228 141.449C48.5628 136.604 57.5582 130.137 61.3341 129.245H61.3316Z" fill="#4459A5"/>
<path d="M43.4294 136.92C43.4294 136.92 35.926 169.738 40.8273 182.985C45.7286 196.229 46.0188 191.319 49.1887 181.546C52.3587 171.77 55.9232 147.692 55.9232 147.692L43.4294 136.92Z" fill="#272D41"/>
<path d="M85.4383 124.68C85.4383 124.68 87.2333 127.328 84.8068 129.838C82.3804 132.35 64.2189 147.062 57.3597 149.162C50.4979 151.263 43.9799 150.93 42.5082 146.416C41.3268 142.79 42.2816 135.542 50.1771 132.083C58.0701 128.625 71.2309 128.19 78.5459 122.997C82.9584 119.864 85.4383 124.678 85.4383 124.678V124.68Z" fill="#F8DEB8"/>
<path d="M115.765 38.6589C115.765 38.6589 107.956 41.2884 101.166 40.2127C92.1754 38.7886 65.5684 38.0231 54.7831 38.2138C43.9952 38.4071 31.5345 43.7068 31.5345 43.7068C31.5345 43.7068 41.4134 34.0432 57.594 30.7703C73.7746 27.4999 81.0947 24.8068 89.1837 27.6932C97.2727 30.5795 109.41 32.1181 112.106 33.8499C114.803 35.5817 115.765 38.6589 115.765 38.6589Z" fill="#617499"/>
<path d="M89.1838 27.4434C89.1838 27.4434 80.2724 12.096 78.014 10.1938C75.7556 8.2916 61.1256 0.230082 55.7457 0.00629191C50.3683 -0.217498 47.1398 5.60358 44.8814 5.49168C42.623 5.37979 40.1482 3.92516 40.1482 3.92516C40.1482 3.92516 41.0088 8.85107 43.8044 10.9796C46.6 13.1082 48.6446 13.5557 48.2143 15.6817C47.784 17.8077 46.8165 23.9671 46.8165 26.5406C46.8165 29.1142 48.6675 33.5798 48.6675 33.5798L89.1813 27.446L89.1838 27.4434Z" fill="#617499"/>
<path d="M81.0921 55.0401C81.0921 55.0401 89.3568 62.0463 90.4134 64.7343L86.3778 62.5269C86.3778 62.5269 95.027 70.9724 92.817 78.3651L80.6134 60.7035L77.9222 71.4531L77.25 65.3904C77.25 65.3904 70.1387 78.5558 66.2941 80.8599L70.4264 68.2869L67.7352 71.2038C67.7352 71.2038 74.3653 56.4795 75.9031 55.0401C77.441 53.6007 81.0921 55.0401 81.0921 55.0401Z" fill="#BEC1DB"/>
<path d="M106.176 122.549C106.095 120.979 107.118 119.568 108.638 119.164C113.876 117.768 125.341 114.95 126.451 116.758C127.892 119.108 134.812 117.732 135.1 128.044C135.388 138.354 139.136 179.244 132.218 184.426C125.3 189.609 114.736 189.726 112.142 174.061C109.69 159.263 106.978 138.097 106.176 122.551V122.549Z" fill="#4459A5"/>
<path d="M115.765 158.51C120.974 176.075 123.569 194.792 126.451 182.41C129.333 170.028 136.238 144.233 132.353 133.807C130.051 127.635 124.969 126.836 121.201 127.215C118.606 127.474 116.638 128.291 116.638 128.291L115.762 128.565C115.762 128.565 114.367 131.882 113.743 137.52C113.16 142.771 113.249 150.039 115.762 158.513L115.765 158.51Z" fill="#272D41"/>
<path d="M113.746 137.517C117.779 140.465 125.3 140.358 125.3 140.358L121.206 127.213C118.611 127.472 116.643 128.289 116.643 128.289L116.009 127.91C116.009 127.91 114.372 131.879 113.748 137.517H113.746Z" fill="#C7C3F4"/>
<path d="M79.3019 128.785C79.3019 128.785 85.2038 117.728 88.0835 115.548C90.7162 113.552 93.303 111.599 95.0904 113.387C96.8778 115.175 96.4678 119.432 97.2088 123C97.8809 126.234 93.3158 127.519 90.3215 128.77C85.7894 130.662 83.8391 130.09 83.3961 130.115C82.5559 130.163 79.3019 128.782 79.3019 128.782V128.785Z" fill="#F8DEB8"/>
<path d="M85.9017 117.938C87.8928 114.289 92.929 112.013 96.5852 111.024C99.5871 110.213 103.523 108.694 104.313 109.516C106.057 111.342 92.6082 115.861 92.6082 115.861C92.6082 115.861 83.9106 121.585 85.9017 117.936V117.938Z" fill="#F8DEB8"/>
<path d="M101.433 111.716C101.433 111.716 103.553 110.65 102.693 113.008C101.832 115.363 99.2097 116.278 97.6108 117.331C96.0118 118.384 92.8623 117.384 92.8623 117.384C92.8623 117.384 93.0838 114.628 101.433 111.718V111.716Z" fill="#F8DEB8"/>
<path d="M99.6151 115.535C99.6151 115.535 101.357 113.531 101.112 116.415C100.87 119.299 95.2994 122.765 95.2994 122.765L92.9392 118.739L99.6151 115.535Z" fill="#F8DEB8"/>
<path d="M97.7919 120.66C97.7919 120.66 99.5334 118.656 99.289 121.54C99.0446 124.423 95.0242 126.674 92.7582 127.236C90.4922 127.801 91.116 123.864 91.116 123.864L97.7919 120.66Z" fill="#F8DEB8"/>
<path d="M76.5472 91.2998C76.5472 91.2998 83.7527 100.44 87.0474 103.321C89.5604 105.432 90.1511 104.674 91.0194 102.538L102.9 106.393C102.9 106.393 101.257 115.698 93.6851 114.798C86.113 113.895 74.0113 92.0704 74.0113 92.0704L76.5447 91.2998H76.5472Z" fill="#303C79"/>
<path d="M101.077 110.205C100.323 110.21 99.5743 110.253 98.8207 110.195C97.186 110.073 95.5769 109.686 94.1103 108.944C92.7253 108.244 91.1314 107.364 90.1842 106.098C89.8278 105.62 89.535 105.101 89.2854 104.564C90.0747 104.59 90.4999 103.814 91.0194 102.538L102.9 106.393C102.9 106.393 102.569 108.237 101.542 110.202C101.387 110.202 101.232 110.202 101.079 110.202L101.077 110.205Z" fill="#231F20"/>
<path d="M89.7817 108.359C89.7817 108.359 88.6843 107.779 85.6748 112.286C84.5825 113.923 83.6532 116.568 82.9148 119.274C81.6214 124.014 61.7719 128.546 80.911 128.938L89.4889 120.225C89.4889 120.225 88.0504 117.601 88.9313 114.572C90.0134 110.857 91.9867 108.283 89.7792 108.359H89.7817Z" fill="#F8DEB8"/>
<path d="M74.0113 92.0702C74.0113 92.0702 63.7963 76.5397 55.7225 72.6056C47.6513 68.6715 40.6342 66.0547 40.6342 66.0547C40.6342 66.0547 57.4513 71.1662 61.8714 74.2383C66.2915 77.3103 76.6694 91.7066 76.6694 91.7066L74.0087 92.0702H74.0113Z" fill="#303C79"/>
<path d="M74.8463 47.1808C74.8463 47.1808 71.2792 49.378 68.4505 48.0353C65.6217 46.6926 66.3907 46.9799 66.3907 46.9799C66.3907 46.9799 70.9075 52.7603 74.8463 47.1834V47.1808Z" fill="#B3C9F4"/>
<path d="M88.6108 47.4699C88.6108 47.4699 85.8127 49.6671 83.5924 48.3244C81.3748 46.9816 81.9757 47.269 81.9757 47.269C81.9757 47.269 85.5199 53.0494 88.6108 47.4724V47.4699Z" fill="#B3C9F4"/>
<path d="M78.8105 42.6692C78.8105 42.6692 80.1803 41.1713 79.8187 40.3804C79.4572 39.5895 79.3452 39.1572 79.3452 39.1572C79.3452 39.1572 79.6023 41.2883 78.8105 42.6717V42.6692Z" fill="#B3C9F4"/>
<path d="M77.2473 43.0735C77.2473 43.0735 78.6171 41.5756 78.2555 40.7847C77.894 39.9938 77.7819 39.5615 77.7819 39.5615C77.7819 39.5615 78.0391 41.6926 77.2473 43.076V43.0735Z" fill="#B3C9F4"/>
<path d="M81.6291 54.2354C81.6291 54.2354 84.552 56.1452 84.4069 58.1135C84.4069 58.1135 85.2395 55.1102 81.6291 54.2354Z" fill="#B3C9F4"/>
<path d="M79.2331 44.4434C79.2331 44.4434 83.2407 51.4978 82.0568 53.6874C80.8703 55.877 77.1937 54.1502 77.1937 54.1502C77.1937 54.1502 83.4113 54.1808 79.2331 44.4434Z" fill="#9EA7F5"/>
<path d="M139.432 76.8569C139.432 76.8569 136.934 76.6634 136.655 77.3269C136.377 77.9904 136.935 79.083 135.833 80.9641C134.732 82.8429 133.284 82.937 133.87 83.9639C134.455 84.9909 136.665 85.6866 137.111 84.6245C137.557 83.5625 138.558 82.1109 138.558 82.1109L139.435 76.8579L139.432 76.8569Z" fill="#9EA7F5"/>
<path d="M143.207 98.652C143.207 98.652 146.116 99.6887 145.667 103.028C145.218 106.367 139.526 128.167 135.395 133.711C131.266 139.256 126.008 142.71 122.285 140.034C119.293 137.884 115.889 131.695 120.044 124.506C124.2 117.318 134.177 109.478 136.888 101.27C138.525 96.3176 143.204 98.651 143.204 98.651L143.207 98.652Z" fill="#F8DEB8"/>
<path d="M168.213 42.5455C168.213 42.5455 170.525 35.4056 167.255 36.7081C163.985 38.0129 162.531 31.9945 159.71 37.4525C156.888 42.9106 156.475 55.2327 148.876 67.6841C141.279 80.1364 118.03 116.823 104.921 140.986C91.8138 165.152 73.5151 195.908 69.3344 205.111C65.1527 214.317 64.0424 218.153 64.0424 218.153L77.9177 222.707C77.9177 222.707 98.9082 168.733 114.85 140.61C130.795 112.488 158.003 73.7514 168.212 42.5422L168.213 42.5455Z" fill="#303C79"/>
<path d="M165.619 23.9399C167.432 19.3843 170.523 21.521 172.099 14.4381C173.676 7.35278 177.574 11.9422 179.213 9.50388C180.855 7.06657 185.336 8.31486 185.336 8.31486C185.336 8.31486 181.076 12.8561 182.856 17.2684C184.633 21.6797 180.55 23.2881 182.73 28.9253C184.91 34.5625 180.681 31.7676 176.751 35.333C172.821 38.8985 169.792 42.2252 168.224 46.8618C166.656 51.5007 161.833 54.489 161.833 54.489C161.833 54.489 156.056 50.6237 156.326 44.1854C156.595 37.7472 159.115 39.9609 159.772 38.8248C160.428 37.6887 158.886 35.8037 159.556 31.4044C160.226 27.0052 163.808 28.4931 165.62 23.9375L165.619 23.9399ZM176.541 25.8769C175.839 27.951 177.54 30.9785 177.54 30.9785C177.54 30.9785 177.794 28.6165 178.781 26.5022C179.768 24.388 177.983 21.6065 177.983 21.6065L177.616 21.4822C177.616 21.4822 177.24 23.8042 176.538 25.8783L176.541 25.8769ZM167.245 25.5811L168.232 23.4669C168.232 23.4669 166.923 24.5188 166.633 25.3734C166.344 26.2281 167.245 25.5811 167.245 25.5811Z" fill="#303C79"/>
<path d="M182.856 17.2681C182.856 17.2681 184.613 16.5041 185.806 13.7789L187 11.0537C187 11.0537 184.093 14.4204 183.438 14.7435L181.477 15.7112L182.856 17.2681Z" fill="#303C79"/>
<path d="M144.469 105.638C144.469 105.638 146.346 104.24 147.46 101.586C148.574 98.9324 149.566 98.1006 150.138 94.4352C150.709 90.7721 151.414 87.943 152.065 84.4709C152.717 80.9964 153.274 79.6694 151.247 79.1283C149.218 78.5862 140.268 74.1962 139.077 75.8801C137.886 77.5663 138.096 79.3703 138.096 79.3703C138.096 79.3703 136.289 81.1091 136.456 81.8029C136.623 82.4967 136.836 83.524 136.836 83.524C136.836 83.524 135.226 84.2534 134.967 85.0798C134.708 85.9085 135.383 87.754 135.383 87.754C135.383 87.754 134.325 88.0895 133.879 89.1515C133.434 90.2136 135.546 92.3523 135.546 92.3523L138.85 95.6154L137.341 99.9791L144.471 105.633L144.469 105.638Z" fill="#F8DEB8"/>
<path d="M137.338 99.9809L122.392 128.383L128.61 132.616L143.806 100.239L137.338 99.9809Z" fill="#F8DEB8"/>
</g>
</svg>
